<svg width="32" height="32" viewBox="0 0 32 32" fill="none" xmlns="http://www.w3.org/2000/svg">
<rect width="32" height="32" rx="8" fill="#404AC3" fill-opacity="0.1"/>
<path d="M15.5997 20.1074L20.5303 15.1768C19.8593 14.8976 19.0645 14.4388 18.3128 13.6871C17.561 12.9353 17.1021 12.1404 16.8229 11.4692L11.8922 16.3999C11.5075 16.7847 11.3151 16.9771 11.1496 17.1892C10.9544 17.4394 10.7871 17.7102 10.6506 17.9966C10.5348 18.2395 10.4488 18.4976 10.2767 19.0138L9.36931 21.7361C9.28463 21.9901 9.35074 22.2702 9.54009 22.4596C9.72945 22.6489 10.0095 22.715 10.2636 22.6304L12.9858 21.7229C13.502 21.5508 13.7601 21.4648 14.003 21.3491C14.2895 21.2126 14.5602 21.0452 14.8105 20.85C15.0225 20.6846 15.215 20.4922 15.5997 20.1074Z" fill="#404AC3"/>
<path d="M21.8985 13.8086C22.9223 12.7848 22.9223 11.1249 21.8985 10.1011C20.8747 9.0773 19.2147 9.0773 18.1909 10.1011L17.5996 10.6925C17.6077 10.7169 17.6161 10.7417 17.6248 10.7668C17.8415 11.3916 18.2505 12.2106 19.0199 12.9799C19.7892 13.7493 20.6082 14.1582 21.233 14.375C21.258 14.3837 21.2827 14.392 21.307 14.4001L21.8985 13.8086Z" fill="#404AC3"/>
</svg>
