<svg width="24" height="24" viewBox="0 0 24 24" fill="none" xmlns="http://www.w3.org/2000/svg">
<path d="M3.5625 10.3446L4.26301 10.284C4.23057 9.90885 3.90837 9.62585 3.53219 9.64209C3.156 9.65832 2.85938 9.96802 2.85938 10.3446H3.5625ZM19.7213 12.0538L19.0599 15.8785L20.4457 16.1182L21.1071 12.2934L19.7213 12.0538ZM13.1672 20.6719H8.80908V22.0781H13.1672V20.6719ZM7.95467 19.8867L7.19327 11.0811L5.79225 11.2022L6.55365 20.0078L7.95467 19.8867ZM19.0599 15.8785C18.5848 18.626 16.1075 20.6719 13.1672 20.6719V22.0781C16.7543 22.0781 19.8476 19.5759 20.4457 16.1182L19.0599 15.8785ZM13.1764 5.53139L12.5551 9.32317L13.9429 9.55054L14.5642 5.75877L13.1764 5.53139ZM7.4885 10.3552L8.83732 9.19298L7.91933 8.12769L6.57052 9.28999L7.4885 10.3552ZM11.2913 5.4113L11.7372 3.69207L10.3761 3.33897L9.93007 5.0582L11.2913 5.4113ZM12.4108 3.35475L12.5468 3.39841L12.9769 2.05956L12.8409 2.0159L12.4108 3.35475ZM10.6158 7.13999C10.9082 6.59248 11.1353 6.01255 11.2913 5.4113L9.93007 5.0582C9.80225 5.551 9.61593 6.02712 9.37539 6.47741L10.6158 7.13999ZM12.5468 3.39841C12.834 3.4907 13.038 3.71258 13.105 3.9711L14.4663 3.618C14.2736 2.87549 13.7053 2.29357 12.9769 2.05956L12.5468 3.39841ZM11.7372 3.69207C11.7701 3.5655 11.8615 3.44918 11.9998 3.38253L11.3893 2.1157C10.8906 2.35602 10.5159 2.79962 10.3761 3.33897L11.7372 3.69207ZM11.9998 3.38253C12.1261 3.32166 12.2748 3.31107 12.4108 3.35475L12.8409 2.0159C12.3631 1.86239 11.8418 1.89768 11.3893 2.1157L11.9998 3.38253ZM14.0191 11.0477H18.8764V9.64143H14.0191V11.0477ZM5.17388 20.8182L4.26301 10.284L2.86199 10.4051L3.77287 20.9393L5.17388 20.8182ZM4.26562 20.9181V10.3446H2.85938V20.9181H4.26562ZM3.77287 20.9393C3.7605 20.7964 3.87324 20.6719 4.01879 20.6719V22.0781C4.69939 22.0781 5.23239 21.4949 5.17388 20.8182L3.77287 20.9393ZM14.5642 5.75877C14.6809 5.04615 14.6476 4.31698 14.4663 3.618L13.105 3.9711C13.2372 4.48052 13.2615 5.01198 13.1764 5.53139L14.5642 5.75877ZM8.80908 20.6719C8.36479 20.6719 7.99313 20.3316 7.95467 19.8867L6.55365 20.0078C6.65486 21.1783 7.63378 22.0781 8.80908 22.0781V20.6719ZM8.83732 9.19298C9.47468 8.64375 10.1617 7.99 10.6158 7.13999L9.37539 6.47741C9.05066 7.08531 8.53359 7.59837 7.91933 8.12769L8.83732 9.19298ZM21.1071 12.2934C21.3464 10.9092 20.282 9.64143 18.8764 9.64143V11.0477C19.4076 11.0477 19.8124 11.5274 19.7213 12.0538L21.1071 12.2934ZM4.01879 20.6719C4.15586 20.6719 4.26562 20.7829 4.26562 20.9181H2.85938C2.85938 21.5581 3.37771 22.0781 4.01879 22.0781V20.6719ZM12.5551 9.32317C12.4073 10.2259 13.1031 11.0477 14.0191 11.0477V9.64143C13.9723 9.64143 13.9349 9.59907 13.9429 9.55054L12.5551 9.32317ZM7.19327 11.0811C7.16944 10.8054 7.27945 10.5354 7.4885 10.3552L6.57052 9.28999C6.01896 9.76529 5.72952 10.4768 5.79225 11.2022L7.19327 11.0811Z" fill="#CFDC28"/>
</svg>
